<?xml version="1.0" encoding="UTF-8" standalone="no"?>
<!DOCTYPE svg PUBLIC "-//W3C//DTD SVG 1.1//EN"
 "http://www.w3.org/Graphics/SVG/1.1/DTD/svg11.dtd">
<!-- Generated by graphviz version 2.43.0 (0)
 -->
<!-- Title: snakemake_dag Pages: 1 -->
<svg width="313pt" height="486pt"
 viewBox="0.00 0.00 312.50 486.00" xmlns="http://www.w3.org/2000/svg" xmlns:xlink="http://www.w3.org/1999/xlink">
<g id="graph0" class="graph" transform="scale(1 1) rotate(0) translate(4 482)">
<title>snakemake_dag</title>
<polygon fill="white" stroke="transparent" points="-4,4 -4,-482 308.5,-482 308.5,4 -4,4"/>
<!-- 0 -->
<g id="node1" class="node">
<title>0</title>
<path fill="none" stroke="#d85656" stroke-width="2" d="M144,-36C144,-36 114,-36 114,-36 108,-36 102,-30 102,-24 102,-24 102,-12 102,-12 102,-6 108,0 114,0 114,0 144,0 144,0 150,0 156,-6 156,-12 156,-12 156,-24 156,-24 156,-30 150,-36 144,-36"/>
<text text-anchor="middle" x="129" y="-15.5" font-family="sans" font-size="10.00">all</text>
</g>
<!-- 1 -->
<g id="node2" class="node">
<title>1</title>
<path fill="none" stroke="#d89556" stroke-width="2" stroke-dasharray="5,2" d="M108,-110.5C108,-110.5 12,-110.5 12,-110.5 6,-110.5 0,-104.5 0,-98.5 0,-98.5 0,-86.5 0,-86.5 0,-80.5 6,-74.5 12,-74.5 12,-74.5 108,-74.5 108,-74.5 114,-74.5 120,-80.5 120,-86.5 120,-86.5 120,-98.5 120,-98.5 120,-104.5 114,-110.5 108,-110.5"/>
<text text-anchor="middle" x="60" y="-95.5" font-family="sans" font-size="10.00">fastqc</text>
<text text-anchor="middle" x="60" y="-84.5" font-family="sans" font-size="10.00">sample: SRR11413027</text>
</g>
<!-- 1&#45;&gt;0 -->
<g id="edge1" class="edge">
<title>1&#45;&gt;0</title>
<path fill="none" stroke="grey" stroke-width="2" d="M76.35,-74.32C85.12,-65.11 96.07,-53.6 105.71,-43.47"/>
<polygon fill="grey" stroke="grey" stroke-width="2" points="108.41,-45.71 112.77,-36.06 103.34,-40.89 108.41,-45.71"/>
</g>
<!-- 2 -->
<g id="node3" class="node">
<title>2</title>
<path fill="none" stroke="#97d856" stroke-width="2" d="M246,-113C246,-113 150,-113 150,-113 144,-113 138,-107 138,-101 138,-101 138,-84 138,-84 138,-78 144,-72 150,-72 150,-72 246,-72 246,-72 252,-72 258,-78 258,-84 258,-84 258,-101 258,-101 258,-107 252,-113 246,-113"/>
<text text-anchor="middle" x="198" y="-101" font-family="sans" font-size="10.00">freebayes</text>
<text text-anchor="middle" x="198" y="-90" font-family="sans" font-size="10.00">ref: hg38</text>
<text text-anchor="middle" x="198" y="-79" font-family="sans" font-size="10.00">sample: SRR11413027</text>
</g>
<!-- 2&#45;&gt;0 -->
<g id="edge2" class="edge">
<title>2&#45;&gt;0</title>
<path fill="none" stroke="grey" stroke-width="2" d="M179.15,-71.69C170.92,-63.04 161.18,-52.81 152.49,-43.68"/>
<polygon fill="grey" stroke="grey" stroke-width="2" points="154.91,-41.15 145.48,-36.32 149.84,-45.98 154.91,-41.15"/>
</g>
<!-- 3 -->
<g id="node4" class="node">
<title>3</title>
<path fill="none" stroke="#59d856" stroke-width="2" d="M226.5,-185C226.5,-185 169.5,-185 169.5,-185 163.5,-185 157.5,-179 157.5,-173 157.5,-173 157.5,-161 157.5,-161 157.5,-155 163.5,-149 169.5,-149 169.5,-149 226.5,-149 226.5,-149 232.5,-149 238.5,-155 238.5,-161 238.5,-161 238.5,-173 238.5,-173 238.5,-179 232.5,-185 226.5,-185"/>
<text text-anchor="middle" x="198" y="-164.5" font-family="sans" font-size="10.00">samtools_sort</text>
</g>
<!-- 3&#45;&gt;2 -->
<g id="edge3" class="edge">
<title>3&#45;&gt;2</title>
<path fill="none" stroke="grey" stroke-width="2" d="M198,-148.82C198,-141.2 198,-132 198,-123.32"/>
<polygon fill="grey" stroke="grey" stroke-width="2" points="201.5,-123.12 198,-113.12 194.5,-123.12 201.5,-123.12"/>
</g>
<!-- 4 -->
<g id="node5" class="node">
<title>4</title>
<path fill="none" stroke="#569ad8" stroke-width="2" d="M292.5,-257C292.5,-257 193.5,-257 193.5,-257 187.5,-257 181.5,-251 181.5,-245 181.5,-245 181.5,-233 181.5,-233 181.5,-227 187.5,-221 193.5,-221 193.5,-221 292.5,-221 292.5,-221 298.5,-221 304.5,-227 304.5,-233 304.5,-233 304.5,-245 304.5,-245 304.5,-251 298.5,-257 292.5,-257"/>
<text text-anchor="middle" x="243" y="-236.5" font-family="sans" font-size="10.00">check_mapping_quality</text>
</g>
<!-- 4&#45;&gt;3 -->
<g id="edge4" class="edge">
<title>4&#45;&gt;3</title>
<path fill="none" stroke="grey" stroke-width="2" d="M231.88,-220.7C226.64,-212.56 220.3,-202.69 214.52,-193.7"/>
<polygon fill="grey" stroke="grey" stroke-width="2" points="217.35,-191.62 209,-185.1 211.46,-195.41 217.35,-191.62"/>
</g>
<!-- 5 -->
<g id="node6" class="node">
<title>5</title>
<path fill="none" stroke="#56d8d8" stroke-width="2" d="M272.5,-329C272.5,-329 199.5,-329 199.5,-329 193.5,-329 187.5,-323 187.5,-317 187.5,-317 187.5,-305 187.5,-305 187.5,-299 193.5,-293 199.5,-293 199.5,-293 272.5,-293 272.5,-293 278.5,-293 284.5,-299 284.5,-305 284.5,-305 284.5,-317 284.5,-317 284.5,-323 278.5,-329 272.5,-329"/>
<text text-anchor="middle" x="236" y="-308.5" font-family="sans" font-size="10.00">samtools_flagstat</text>
</g>
<!-- 5&#45;&gt;4 -->
<g id="edge6" class="edge">
<title>5&#45;&gt;4</title>
<path fill="none" stroke="grey" stroke-width="2" d="M237.73,-292.7C238.5,-284.98 239.43,-275.71 240.29,-267.11"/>
<polygon fill="grey" stroke="grey" stroke-width="2" points="243.78,-267.4 241.29,-257.1 236.81,-266.71 243.78,-267.4"/>
</g>
<!-- 6 -->
<g id="node7" class="node">
<title>6</title>
<path fill="none" stroke="#56d89a" stroke-width="2" d="M253.5,-401C253.5,-401 128.5,-401 128.5,-401 122.5,-401 116.5,-395 116.5,-389 116.5,-389 116.5,-377 116.5,-377 116.5,-371 122.5,-365 128.5,-365 128.5,-365 253.5,-365 253.5,-365 259.5,-365 265.5,-371 265.5,-377 265.5,-377 265.5,-389 265.5,-389 265.5,-395 259.5,-401 253.5,-401"/>
<text text-anchor="middle" x="191" y="-386" font-family="sans" font-size="10.00">sam_to_bam</text>
<text text-anchor="middle" x="191" y="-375" font-family="sans" font-size="10.00">sample: SRR11413027_hg38</text>
</g>
<!-- 6&#45;&gt;3 -->
<g id="edge5" class="edge">
<title>6&#45;&gt;3</title>
<path fill="none" stroke="grey" stroke-width="2" d="M185.16,-364.87C175.89,-335.21 160.04,-272.54 172,-221 174.1,-211.96 177.97,-202.68 182.09,-194.47"/>
<polygon fill="grey" stroke="grey" stroke-width="2" points="185.31,-195.86 186.95,-185.39 179.14,-192.55 185.31,-195.86"/>
</g>
<!-- 6&#45;&gt;5 -->
<g id="edge7" class="edge">
<title>6&#45;&gt;5</title>
<path fill="none" stroke="grey" stroke-width="2" d="M202.12,-364.7C207.36,-356.56 213.7,-346.69 219.48,-337.7"/>
<polygon fill="grey" stroke="grey" stroke-width="2" points="222.54,-339.41 225,-329.1 216.65,-335.62 222.54,-339.41"/>
</g>
<!-- 7 -->
<g id="node8" class="node">
<title>7</title>
<path fill="none" stroke="#d6d856" stroke-width="2" d="M239,-478C239,-478 143,-478 143,-478 137,-478 131,-472 131,-466 131,-466 131,-449 131,-449 131,-443 137,-437 143,-437 143,-437 239,-437 239,-437 245,-437 251,-443 251,-449 251,-449 251,-466 251,-466 251,-472 245,-478 239,-478"/>
<text text-anchor="middle" x="191" y="-466" font-family="sans" font-size="10.00">bwa_map</text>
<text text-anchor="middle" x="191" y="-455" font-family="sans" font-size="10.00">ref: hg38</text>
<text text-anchor="middle" x="191" y="-444" font-family="sans" font-size="10.00">sample: SRR11413027</text>
</g>
<!-- 7&#45;&gt;6 -->
<g id="edge8" class="edge">
<title>7&#45;&gt;6</title>
<path fill="none" stroke="grey" stroke-width="2" d="M191,-436.69C191,-428.91 191,-419.84 191,-411.45"/>
<polygon fill="grey" stroke="grey" stroke-width="2" points="194.5,-411.32 191,-401.32 187.5,-411.32 194.5,-411.32"/>
</g>
</g>
</svg>
